# File created by Blade
# Date/Time:  Tue Apr 07 21:33:03 2015
# Frame Rate: 120.000 fps
#------------------------------------------------------
:FULLY-SPECIFIED
:DEGREES
1144
root -1.812907 33.017580 -4.084879 14.488335 -1.693225 -3.317976
Spine -15.821043 -5.819543 2.443304
Head 10.675121 -1.296456 -1.510539
LeftShoulder -22.785811 38.249592 19.372214
LeftArm 54.715605 -59.576889 -53.242623
LeftForeArm 10.188070 -0.000000 -2.089444
LeftHand 3.036044 -0.000000 4.673932
LeftHandThumb1 -26.253704 0.000000 33.147579
RightShoulder -7.030738 4.517067 -30.775471
RightArm 12.164112 14.700881 41.407483
RightForeArm -13.713453 -0.000000 0.118394
RightHand 0.753268 0.000000 1.501508
RightHandThumb1 -24.326973 -0.000000 -32.862282
LeftUpLeg -3.534716 -11.775550 4.348221
LeftLeg -8.429299 -0.000000 0.000000
LeftFoot -7.962425 21.012288 -20.594493
LeftToeBase -4.588632 -0.000000 0.000000
RightUpLeg -7.752667 -2.894666 5.816993
RightLeg -2.029334 -0.000000 0.000000
RightFoot -3.944830 -8.432481 5.391851
RightToeBase -3.471363 -0.000000 0.000000
1145
root -1.813684 33.012407 -4.098798 14.456932 -1.699644 -3.278929
Spine -15.770921 -5.887471 2.410392
Head 10.587444 -1.286057 -1.482691
LeftShoulder -22.753425 38.231171 19.400713
LeftArm 54.651673 -59.478786 -53.169282
LeftForeArm 10.032787 0.000000 -2.088619
LeftHand 3.171439 -0.000000 4.669435
LeftHandThumb1 -26.253704 0.000000 33.147579
RightShoulder -7.038218 4.472507 -30.731748
RightArm 12.137970 14.671501 41.394597
RightForeArm -13.746280 -0.000000 0.160500
RightHand 0.803134 -0.000000 1.501745
RightHandThumb1 -24.326973 -0.000000 -32.862282
LeftUpLeg -3.531853 -11.689985 4.304449
LeftLeg -8.418829 -0.000000 0.000000
LeftFoot -7.945632 20.844676 -20.781841
LeftToeBase -4.881096 -0.000000 0.000000
RightUpLeg -7.688007 -2.826518 5.735956
RightLeg -2.122236 -0.000000 0.000000
RightFoot -4.002245 -8.342152 5.577288
RightToeBase -3.400447 -0.000000 0.000000
1146
root -1.813917 33.008178 -4.113097 14.439674 -1.702611 -3.231412
Spine -15.737484 -5.968352 2.380928
Head 10.499180 -1.265473 -1.486644
LeftShoulder -22.681624 38.155314 19.490835
LeftArm 54.496051 -59.395851 -53.080044
LeftForeArm 9.908856 -0.000000 -2.097641
LeftHand 3.168218 -0.000000 4.698373
LeftHandThumb1 -26.253704 0.000000 33.147579
RightShoulder -7.043374 4.401571 -30.670362
RightArm 12.139686 14.654271 41.353993
RightForeArm -13.785490 -0.000000 0.193887
RightHand 0.775991 -0.000000 1.656187
RightHandThumb1 -24.326973 -0.000000 -32.862282
LeftUpLeg -3.554862 -11.581941 4.248952
LeftLeg -8.383065 -0.000000 0.000000
LeftFoot -7.949348 20.689320 -20.795964
LeftToeBase -4.909558 -0.000000 0.000000
RightUpLeg -7.636889 -2.756486 5.646076
RightLeg -2.219560 -0.000000 0.000000
RightFoot -4.056835 -8.262545 5.767079
RightToeBase -3.320743 -0.000000 0.000000
1147
root -1.812770 33.004842 -4.127448 14.432654 -1.700268 -3.177921
Spine -15.719352 -6.044540 2.349593
Head 10.429774 -1.228458 -1.494577
LeftShoulder -22.747395 38.292523 19.379000
LeftArm 54.826159 -59.451972 -53.285994
LeftForeArm 9.838346 -0.000000 -2.148253
LeftHand 3.087831 -0.000000 4.612691
LeftHandThumb1 -26.253704 0.000000 33.147579
RightShoulder -7.048423 4.359652 -30.618204
RightArm 12.135234 14.668294 41.317091
RightForeArm -13.808796 -0.000000 0.200829
RightHand 0.568913 -0.000000 1.430336
RightHandThumb1 -24.326973 -0.000000 -32.862282
LeftUpLeg -3.576190 -11.561807 4.194159
LeftLeg -8.378171 -0.000000 0.000000
LeftFoot -7.946906 20.707654 -20.584478
LeftToeBase -4.590564 -0.000000 0.000000
RightUpLeg -7.602342 -2.715771 5.557512
RightLeg -2.307224 -0.000000 0.000000
RightFoot -4.099686 -8.183967 5.910309
RightToeBase -3.263930 -0.000000 0.000000
1148
root -1.815022 33.001656 -4.143796 14.441404 -1.663362 -3.163261
Spine -15.713279 -6.141844 2.365643
Head 10.367045 -1.290253 -1.471860
LeftShoulder -22.705936 38.285959 19.415228
LeftArm 54.751832 -59.380134 -53.204503
LeftForeArm 9.887217 -0.000000 -2.162549
LeftHand 3.085204 -0.000000 4.502128
LeftHandThumb1 -26.253704 0.000000 33.147579
RightShoulder -7.060718 4.344882 -30.603320
RightArm 12.101577 14.684744 41.315713
RightForeArm -13.806714 -0.000000 0.199791
RightHand 0.709710 -0.000000 1.729004
RightHandThumb1 -24.326973 -0.000000 -32.862282
LeftUpLeg -3.605977 -11.757467 4.215342
LeftLeg -8.409736 -0.000000 0.000000
LeftFoot -8.025727 20.897587 -20.599807
LeftToeBase -4.437556 -0.000000 0.000000
RightUpLeg -7.610560 -2.744613 5.536881
RightLeg -2.346352 -0.000000 0.000000
RightFoot -4.154692 -8.080405 6.053347
RightToeBase -3.174372 -0.000000 0.000000
